<svg width="542" height="61" viewBox="0 0 542 61" fill="none" xmlns="http://www.w3.org/2000/svg">
<path d="M36.7791 20.8072C38.7404 19.3848 40.2012 17.3781 40.9522 15.0746C41.7032 12.7711 41.7058 10.289 40.9597 7.98389C40.2136 5.67879 38.757 3.669 36.7986 2.24245C34.8403 0.815904 32.4807 0.0458033 30.0578 0.0424805H11.4788C9.05599 0.0458033 6.69638 0.815904 4.73803 2.24245C2.77969 3.669 1.32311 5.67879 0.57699 7.98389C-0.169133 10.289 -0.166516 12.7711 0.584467 15.0746C1.33545 17.3781 2.79626 19.3848 4.75761 20.8072C3.2851 21.8678 2.08578 23.2631 1.25859 24.8783C0.431387 26.4934 0 28.2821 0 30.0967C0 31.9114 0.431387 33.7001 1.25859 35.3152C2.08578 36.9304 3.2851 38.3257 4.75761 39.3862C3.16483 40.5373 1.89433 42.078 1.06783 43.8609C0.241338 45.6438 -0.11345 47.6091 0.0374628 49.5684C0.188375 51.5277 0.839931 53.4155 1.9297 55.0508C3.01947 56.6861 4.51093 58.0141 6.26119 58.9076C8.01144 59.8011 9.96183 60.2302 11.9255 60.1537C13.8891 60.0772 15.8002 59.4977 17.4757 58.4708C19.1511 57.4438 20.5348 56.0038 21.494 54.2887C22.4533 52.5736 22.956 50.6409 22.9541 48.6757V39.0857C24.1452 40.0907 25.5285 40.8426 27.0197 41.2954C28.5109 41.7483 30.0787 41.8926 31.6275 41.7197C33.1763 41.5468 34.6737 41.0602 36.0283 40.2896C37.3829 39.519 38.5663 38.4806 39.5064 37.2376C40.4465 35.9947 41.1236 34.5732 41.4964 33.06C41.8691 31.5468 41.9298 29.9736 41.6746 28.4362C41.4194 26.8988 40.8537 25.4294 40.012 24.1178C39.1703 22.8062 38.0703 21.6798 36.7791 20.8072ZM37.1616 11.5177C37.1544 13.3996 36.4036 15.2022 35.073 16.5329C33.7423 17.8635 31.9396 18.6143 30.0578 18.6215H22.9541V4.41401H30.0578C31.9396 4.42121 33.7423 5.17194 35.073 6.5026C36.4036 7.83325 37.1544 9.63593 37.1616 11.5177ZM4.3751 11.5177C4.3823 9.63593 5.13303 7.83325 6.46369 6.5026C7.79434 5.17194 9.59702 4.42121 11.4788 4.41401H18.5826V18.6215H11.4788C9.59702 18.6143 7.79434 17.8635 6.46369 16.5329C5.13303 15.2022 4.3823 13.3996 4.3751 11.5177ZM4.3751 30.0967C4.3823 28.2149 5.13303 26.4123 6.46369 25.0816C7.79434 23.7509 9.59702 23.0002 11.4788 22.993H18.5826V37.2005H11.4788C9.59702 37.1933 7.79434 36.4426 6.46369 35.1119C5.13303 33.7812 4.3823 31.9786 4.3751 30.0967ZM11.4788 55.7795C9.59481 55.7795 7.78794 55.0311 6.45574 53.6988C5.12353 52.3666 4.3751 50.5598 4.3751 48.6757C4.3751 46.7917 5.12353 44.9849 6.45574 43.6526C7.78794 42.3204 9.59481 41.572 11.4788 41.572H18.5826V48.6757C18.5754 50.5576 17.8246 52.3602 16.494 53.6909C15.1633 55.0215 13.3606 55.7723 11.4788 55.7795ZM30.0578 37.2005C28.1738 37.2005 26.3669 36.4521 25.0347 35.1198C23.7025 33.7876 22.9541 31.9808 22.9541 30.0967C22.9541 28.2127 23.7025 26.4059 25.0347 25.0736C26.3669 23.7414 28.1738 22.993 30.0578 22.993C31.9419 22.993 33.7487 23.7414 35.0809 25.0736C36.4131 26.4059 37.1616 28.2127 37.1616 30.0967C37.1616 31.9808 36.4131 33.7876 35.0809 35.1198C33.7487 36.4521 31.9419 37.2005 30.0578 37.2005Z" fill="#353535"/>
<path d="M480.334 0.0424805V60.1624H542V0.0424805H480.334ZM482.903 2.61123H539.429V57.5917H482.903V2.61123ZM496.514 14.1138C496.514 13.9423 496.554 13.8131 496.774 13.8131C498.974 13.7235 501.176 13.683 503.378 13.6917C510.504 13.6917 513.595 17.5959 513.595 22.5947C513.595 29.1177 508.878 31.9197 503.066 31.9197C502.093 31.9197 501.752 31.8792 501.069 31.8792V41.7553C501.069 41.9653 500.989 42.0463 500.778 42.0463H496.815C496.593 42.0463 496.514 41.9653 496.514 41.7553V14.1138ZM501.069 27.763C501.673 27.8035 502.133 27.8035 503.156 27.8035C506.157 27.8035 508.978 26.7494 508.978 22.6756C508.978 19.4131 506.97 17.7578 503.528 17.7578C502.515 17.7578 501.542 17.8079 501.069 17.8484V27.763ZM517.521 25.4351C517.521 25.1345 517.521 24.3714 517.39 22.9358C517.39 22.7257 517.42 22.6756 517.59 22.5947C520.589 21.441 523.771 20.839 526.984 20.8179C527.194 20.8179 527.285 20.8584 527.285 21.0685V24.8031C527.285 25.0131 527.216 25.0536 527.004 25.0536C525.367 24.9514 523.725 25.1247 522.146 25.5662V41.7553C522.146 41.9653 522.055 42.0463 521.845 42.0463H517.81C517.6 42.0463 517.519 41.9653 517.519 41.7553L517.521 25.4351Z" fill="#353535"/>
<path d="M404.547 60.1624H368.475C365.286 60.1624 362.228 58.8956 359.973 56.6407C357.718 54.3857 356.451 51.3274 356.451 48.1384V12.0665C356.451 8.87751 357.718 5.81916 359.973 3.56422C362.228 1.30929 365.286 0.0424805 368.475 0.0424805H404.547C407.736 0.0424805 410.794 1.30929 413.049 3.56422C415.304 5.81916 416.571 8.87751 416.571 12.0665V48.1384C416.571 51.3274 415.304 54.3857 413.049 56.6407C410.794 58.8956 407.736 60.1624 404.547 60.1624ZM368.475 6.05447C366.881 6.05447 365.352 6.68788 364.224 7.81535C363.097 8.94281 362.463 10.472 362.463 12.0665V48.1384C362.463 49.7329 363.097 51.2621 364.224 52.3895C365.352 53.517 366.881 54.1504 368.475 54.1504H404.547C406.142 54.1504 407.671 53.517 408.798 52.3895C409.926 51.2621 410.559 49.7329 410.559 48.1384V12.0665C410.559 10.472 409.926 8.94281 408.798 7.81535C407.671 6.68788 406.142 6.05447 404.547 6.05447H368.475ZM397.82 44.4591C396.52 44.5115 395.223 44.2986 394.008 43.8335C392.793 43.3684 391.685 42.6607 390.753 41.7537C388.8 39.5275 387.798 36.6242 387.963 33.6676C387.903 30.794 388.928 28.0032 390.834 25.852C391.83 24.7985 393.038 23.9676 394.378 23.4138C395.719 22.86 397.161 22.5958 398.61 22.6386H399.311V16.6266C399.311 16.1576 399.692 15.7759 400.161 15.7729H404.12C404.34 15.7647 404.555 15.8398 404.721 15.9833C404.803 16.0603 404.867 16.1537 404.909 16.2574C404.952 16.361 404.972 16.4725 404.968 16.5845V39.6675C404.953 40.4641 404.995 41.2607 405.088 42.0513V42.1264C405.093 42.3176 405.034 42.5048 404.92 42.6585C404.822 42.7791 404.697 42.8758 404.556 42.9411C402.47 43.9368 400.188 44.4564 397.877 44.4621L397.82 44.4591ZM395.066 29.0804L395.051 29.0984C394.099 30.3515 393.62 31.9004 393.698 33.4722C393.575 35.1099 394.048 36.737 395.03 38.0533C395.833 38.9371 396.99 39.418 398.183 39.3579C398.562 39.3636 398.941 39.3252 399.311 39.2437V27.6736C399.03 27.6135 398.744 27.5843 398.457 27.5864C397.816 27.5692 397.178 27.6952 396.592 27.9552C396.005 28.2152 395.484 28.6027 395.066 29.0894V29.0804ZM387.187 44.1104H382.826C382.602 44.125 382.378 44.0692 382.188 43.9506C381.997 43.832 381.848 43.6566 381.762 43.4491L381.13 42.1264L381.115 42.0934L380.499 40.8639L380.307 40.4641C379.348 38.4862 378.359 36.4481 377.367 34.3499C375.988 37.4058 374.568 40.4431 373.107 43.4611V43.4912L373.092 43.5182C372.992 43.6868 372.851 43.8282 372.684 43.93C372.513 44.0319 372.317 44.084 372.118 44.0803H367.997C367.825 44.0888 367.654 44.0409 367.512 43.9438C367.369 43.8467 367.262 43.7057 367.207 43.5423C367.17 43.4178 367.163 43.2867 367.186 43.159C367.208 43.0313 367.259 42.9105 367.336 42.8058L374.036 29.9972L367.555 17.0294C367.468 16.9032 367.418 16.7549 367.412 16.6017C367.406 16.4485 367.443 16.2966 367.519 16.1636C367.593 16.043 367.696 15.9434 367.819 15.8744C367.942 15.8054 368.081 15.7694 368.223 15.7699H372.533C372.743 15.7587 372.951 15.8066 373.134 15.9081C373.321 16.022 373.465 16.1942 373.543 16.3981C375.154 19.7799 376.513 22.7107 377.701 25.3109C379.177 22.0043 380.746 18.6436 381.798 16.4161L381.813 16.3831L381.831 16.353V16.32C381.906 16.1914 382 16.0748 382.11 15.9743C382.296 15.819 382.532 15.7368 382.775 15.7428H386.812C386.966 15.7387 387.118 15.7794 387.25 15.8599C387.382 15.9404 387.488 16.0574 387.554 16.1967C387.607 16.3243 387.629 16.4628 387.617 16.6005C387.605 16.7381 387.56 16.8709 387.485 16.9873L381.001 29.5734L387.861 42.7998C387.933 42.9146 387.978 43.0443 387.993 43.1791C388.008 43.3139 387.993 43.4504 387.948 43.5783C387.891 43.734 387.788 43.8682 387.652 43.9624C387.515 44.0567 387.353 44.1063 387.187 44.1044V44.1104Z" fill="#353535"/>
<path d="M231.022 0.0424805V60.1624H292.687V0.0424805H231.022ZM233.591 2.61123H290.117V57.5917H233.591V2.61123ZM252.41 34.0876L250.373 41.7861C250.333 42.0077 250.252 42.0463 250.001 42.0463H246.228C245.968 42.0463 245.928 41.9653 245.968 41.6743L253.264 16.1217C253.395 15.6592 253.474 15.2488 253.514 13.9731C253.514 13.8016 253.605 13.7226 253.736 13.7226H259.116C259.288 13.7226 259.377 13.763 259.417 13.9731L267.597 41.7148C267.647 41.9249 267.597 42.0463 267.387 42.0463H263.152C262.93 42.0463 262.81 41.9962 262.77 41.8247L260.643 34.0856H252.403L252.41 34.0876ZM259.577 29.9117C258.854 27.0712 257.158 20.8488 256.526 17.8368H256.476C255.935 20.8372 254.569 25.9265 253.516 29.9117H259.577ZM271.139 15.6303C271.139 13.975 272.284 12.9999 273.77 12.9999C275.336 12.9999 276.4 14.0637 276.4 15.6303C276.4 17.3261 275.296 18.2608 273.719 18.2608C272.184 18.2608 271.13 17.3281 271.13 15.6303H271.139ZM271.43 21.4712C271.43 21.2708 271.511 21.1899 271.721 21.1899H275.756C275.988 21.1899 276.067 21.2708 276.067 21.4905V41.7746C276.067 41.9846 276.026 42.0655 275.766 42.0655H271.791C271.53 42.0655 271.449 41.9441 271.449 41.7341V21.4693L271.43 21.4712Z" fill="#353535"/>
<path d="M105.593 0.0424805V60.1624H167.258V0.0424805H105.593ZM108.162 2.61123H164.688V57.5917H108.162V2.61123ZM120.497 14.1234C120.497 13.9519 120.859 13.8228 121.069 13.8228C123.276 13.7294 125.485 13.6857 127.694 13.6917C134.82 13.6917 137.59 17.5959 137.59 22.5947C137.59 29.1293 132.853 31.9293 127.051 31.9293C126.068 31.9293 125.736 31.8792 125.054 31.8792V41.7553C125.054 41.9653 124.973 42.0559 124.763 42.0559H120.788C120.578 42.0559 120.497 41.975 120.497 41.7649V14.1234ZM125.054 27.7746C125.646 27.815 126.118 27.815 127.141 27.815C130.142 27.815 132.972 26.7513 132.972 22.6872C132.972 19.4247 130.945 17.7694 127.513 17.7694C126.5 17.7694 125.526 17.8098 125.054 17.8503V27.7746ZM147.175 24.7125C145.138 24.7125 144.456 25.7358 144.456 26.5798C144.456 27.5125 144.918 28.1465 147.637 29.5513C151.663 31.5092 152.937 33.3649 152.937 36.1245C152.937 40.2291 149.796 42.4375 145.56 42.4375C143.311 42.4375 141.396 41.9653 140.291 41.3333C140.131 41.2523 140.091 41.1232 140.091 40.9112V37.1381C140.091 36.8876 140.212 36.797 140.382 36.928C141.92 37.928 143.716 38.4584 145.55 38.4543C147.587 38.4543 148.431 37.6102 148.431 36.4578C148.431 35.5252 147.84 34.7216 145.259 33.3669C141.606 31.621 140.079 29.8442 140.079 26.8727C140.079 23.5601 142.669 20.8102 147.156 20.8102C149.364 20.8102 150.919 21.1513 151.773 21.5232C151.983 21.6543 152.023 21.8643 152.023 22.0358V25.5585C152.023 25.7685 151.892 25.8996 151.642 25.809C150.497 25.1365 148.811 24.7048 147.165 24.7048L147.175 24.7125Z" fill="#353535"/>
</svg>
