<svg width="731" height="72" viewBox="0 0 731 72" fill="none" xmlns="http://www.w3.org/2000/svg">
<path d="M63 38.3571V37.5699C63 34.1001 60.015 31.2857 56.335 31.2857H50.5C48.5109 31.2857 46.6032 32.0307 45.1967 33.3569C43.7902 34.683 43 36.4817 43 38.3571C43 40.2326 43.7902 42.0312 45.1967 43.3574C46.6032 44.6836 48.5109 45.4286 50.5 45.4286H55.5C57.4891 45.4286 59.3968 46.1736 60.8033 47.4997C62.2098 48.8259 63 50.6245 63 52.5C63 54.3755 62.2098 56.1741 60.8033 57.5003C59.3968 58.8264 57.4891 59.5714 55.5 59.5714H50.5C48.5109 59.5714 46.6032 58.8264 45.1967 57.5003C43.7902 56.1741 43 54.3755 43 52.5M33 28.9286V52.5C33 54.3755 32.2098 56.1741 30.8033 57.5003C29.3968 58.8264 27.4891 59.5714 25.5 59.5714C23.5109 59.5714 21.6032 58.8264 20.1967 57.5003C18.7902 56.1741 18 54.3755 18 52.5M3 3H73V69H3V3Z" stroke="#353535" stroke-width="5"/>
<path d="M138.718 9.77043C136.004 6.74557 133.666 3.67364 133.189 3.03534C133.178 3.02417 133.164 3.01528 133.149 3.0092C133.134 3.00313 133.118 3 133.101 3C133.085 3 133.068 3.00313 133.053 3.0092C133.038 3.01528 133.025 3.02417 133.013 3.03534C132.536 3.67364 130.198 6.74557 127.484 9.77043C104.188 37.6786 131.154 56.5121 131.154 56.5121L131.38 56.6543C131.581 59.5605 132.083 63.7434 132.083 63.7434H134.094C134.094 63.7434 134.596 59.5841 134.797 56.6543L135.024 56.4886C135.049 56.5121 162.014 37.6786 138.718 9.77043ZM133.088 56.0871C133.088 56.0871 131.882 55.1178 131.555 54.6222V54.5746L133.013 24.1853C133.013 24.0907 133.164 24.0907 133.164 24.1853L134.621 54.5746V54.6222C134.295 55.1178 133.088 56.0871 133.088 56.0871Z" fill="#01EC64"/>
<path d="M183.236 50.0519L172.004 24.0986L171.979 24.027H163.24V25.7713H164.65C165.078 25.7713 165.481 25.9391 165.784 26.2254C166.086 26.5122 166.237 26.8947 166.237 27.3014L165.985 53.421C165.985 54.2339 165.28 54.9027 164.424 54.9269L162.988 54.9506V56.6712H171.501V54.9506L170.619 54.9269C169.763 54.9027 169.057 54.2339 169.057 53.4215V28.8058L181.297 56.6707C181.473 57.0769 181.876 57.3399 182.33 57.3399C182.783 57.3399 183.186 57.0769 183.362 56.6707L195.325 29.4272L195.501 53.421C195.501 54.2571 194.796 54.9264 193.914 54.9501H193.007V56.6707H202.981V54.9501H201.621C200.765 54.9501 200.059 54.2571 200.034 53.4447L199.958 27.3241C199.958 26.9273 200.121 26.546 200.412 26.2606C200.703 25.9753 201.101 25.8083 201.52 25.795L202.981 25.7708V24.0266H194.468L183.236 50.0514L183.236 50.0519ZM261.553 54.496C261.275 54.2329 261.124 53.8741 261.124 53.4427V40.6119C261.124 38.1702 260.367 36.2547 258.852 34.8905C257.361 33.5258 255.291 32.8318 252.716 32.8318C249.105 32.8318 246.252 34.2202 244.257 36.9492C244.232 36.997 244.156 37.0212 244.081 37.0212C244.004 37.0212 243.954 36.9728 243.954 36.9013L243.02 33.4779H241.454L237.44 35.6565V36.8534H238.475C238.955 36.8534 239.359 36.9728 239.637 37.2127C239.914 37.4521 240.065 37.8109 240.065 38.3134V53.419C240.065 53.8499 239.914 54.2092 239.637 54.4728C239.359 54.7359 238.98 54.8795 238.525 54.8795H237.515V56.6267H246.757V54.8795H245.747C245.292 54.8795 244.913 54.7359 244.636 54.4728C244.358 54.2092 244.206 53.8499 244.206 53.419V43.4124C244.206 42.144 244.509 40.875 245.065 39.6297C245.646 38.4091 246.504 37.3795 247.64 36.5893C248.777 35.7996 250.14 35.4166 251.706 35.4166C253.473 35.4166 254.811 35.9433 255.645 36.9965C256.478 38.0498 256.907 39.4145 256.907 41.0423V53.3948C256.907 53.8257 256.756 54.1846 256.478 54.4481C256.2 54.7117 255.821 54.8548 255.366 54.8548H254.357V56.6025H263.598V54.8553H262.589C262.21 54.9032 261.856 54.7596 261.553 54.496ZM345.984 25.9811C343.43 24.6943 340.575 24.0266 337.494 24.0266H325.474V25.7664H326.65C327.101 25.7664 327.502 25.9332 327.903 26.3142C328.278 26.6721 328.479 27.0773 328.479 27.5062V53.1471C328.479 53.5765 328.279 53.9812 327.903 54.339C327.527 54.6964 327.101 54.8869 326.65 54.8869H325.473V56.6267H337.494C340.575 56.6267 343.43 55.9594 345.984 54.6722C348.539 53.3855 350.617 51.4788 352.12 49.0485C353.623 46.6182 354.399 43.6869 354.399 40.3503C354.399 37.0143 353.623 34.1067 352.12 31.6527C350.593 29.1745 348.538 27.2915 345.984 25.9811ZM349.566 40.303C349.566 43.3532 348.99 45.9267 347.863 48.0001C346.736 50.0731 345.233 51.622 343.38 52.6234C341.527 53.6239 339.473 54.1243 337.269 54.1243H334.84C334.389 54.1243 333.988 53.9575 333.588 53.5765C333.212 53.2186 333.012 52.8139 333.012 52.385V28.1972C333.012 27.7678 333.187 27.3873 333.588 27.0057C333.963 26.6484 334.389 26.4579 334.84 26.4579H337.269C339.473 26.4579 341.526 26.9579 343.38 27.9588C345.233 28.9598 346.736 30.5086 347.863 32.5821C348.989 34.6787 349.566 37.2764 349.566 40.303ZM382.814 42.0428C381.702 40.8271 379.556 39.8025 377.033 39.2541C380.517 37.61 382.308 35.2987 382.308 32.3195C382.308 30.6996 381.856 29.2455 380.945 28.0067C380.037 26.7678 378.749 25.7664 377.109 25.0754C375.467 24.3844 373.548 24.027 371.377 24.027H357.77V25.7664H358.855C359.31 25.7664 359.714 25.9332 360.118 26.3142C360.496 26.6721 360.698 27.0773 360.698 27.5062V53.1471C360.698 53.5765 360.496 53.9812 360.118 54.339C359.739 54.6964 359.31 54.8869 358.855 54.8869H357.669V56.6267H372.439C374.685 56.6267 376.779 56.2694 378.674 55.5542C380.568 54.8395 382.082 53.7907 383.168 52.4087C384.278 51.0267 384.834 49.3343 384.834 47.3802C384.809 45.2835 384.152 43.4958 382.814 42.0428ZM365.874 53.6002C365.495 53.2428 365.293 52.8376 365.293 52.4087V40.8982H372.312C374.785 40.8982 376.679 41.4939 377.992 42.6849C379.304 43.8769 379.961 45.4257 379.961 47.3323C379.961 48.4759 379.657 49.5963 379.104 50.621C378.522 51.6693 377.662 52.5035 376.503 53.1471C375.365 53.7902 373.952 54.1243 372.312 54.1243H367.135C366.681 54.1243 366.277 53.957 365.873 53.5997L365.874 53.6002ZM365.319 38.4442V28.2209C365.319 27.792 365.495 27.4109 365.899 27.0294C366.278 26.6721 366.707 26.4816 367.161 26.4816H370.494C372.891 26.4816 374.66 27.0536 375.771 28.1498C376.881 29.2697 377.436 30.6996 377.436 32.4626C377.436 34.274 376.906 35.7276 375.872 36.8238C374.835 37.8958 373.271 38.4442 371.201 38.4442H365.319ZM226.372 34.351C224.443 33.354 222.288 32.8308 219.958 32.8308C217.689 32.8308 215.563 33.3042 213.695 34.272L213.544 34.351C211.615 35.3485 210.087 36.7971 208.96 38.6258C207.833 40.4545 207.256 42.5921 207.256 44.9667C207.256 47.3417 207.832 49.4794 208.96 51.308C210.087 53.1367 211.615 54.5853 213.544 55.5823C215.474 56.5798 217.628 57.1025 219.958 57.1025C222.227 57.1025 224.353 56.6297 226.221 55.6623L226.372 55.5828C228.301 54.5853 229.829 53.1367 230.957 51.308C232.084 49.4794 232.66 47.3417 232.66 44.9667C232.66 42.5921 232.084 40.4545 230.957 38.6258C229.829 36.7971 228.301 35.348 226.372 34.351ZM228.226 44.9667C228.226 47.8881 227.474 50.2627 225.971 51.9729C224.493 53.6826 222.464 54.5612 219.958 54.5612C217.497 54.5612 215.496 53.7137 214.025 52.0637L213.946 51.9729C212.442 50.2627 211.69 47.8881 211.69 44.9667C211.69 42.099 212.415 39.7576 213.864 38.0547L213.946 37.961C215.423 36.2512 217.453 35.3722 219.958 35.3722C222.464 35.3722 224.493 36.2508 225.971 37.961C227.474 39.6712 228.226 42.0457 228.226 44.9667ZM315.16 34.351C313.231 33.354 311.077 32.8308 308.747 32.8308C306.478 32.8308 304.352 33.3042 302.484 34.272L302.333 34.351C300.404 35.3485 298.876 36.7971 297.748 38.6258C296.621 40.4545 296.044 42.5921 296.044 44.9667C296.044 47.3417 296.621 49.4794 297.748 51.308C298.875 53.1367 300.404 54.5853 302.333 55.5823C304.262 56.5798 306.417 57.1025 308.747 57.1025C311.015 57.1025 313.142 56.6297 315.009 55.6623L315.161 55.5828C317.089 54.5853 318.618 53.1367 319.745 51.308C320.872 49.4794 321.448 47.3417 321.448 44.9667C321.448 42.5921 320.872 40.4545 319.745 38.6258C318.618 36.7971 317.064 35.348 315.16 34.351ZM317.014 44.9667C317.014 47.8881 316.263 50.2627 314.759 51.9729C313.281 53.6826 311.252 54.5612 308.747 54.5612C306.286 54.5612 304.284 53.7137 302.814 52.0637L302.734 51.9729C301.231 50.2627 300.479 47.8881 300.479 44.9667C300.479 42.0754 301.204 39.7566 302.652 38.0547L302.734 37.961C304.212 36.2512 306.241 35.3722 308.747 35.3722C311.252 35.3722 313.281 36.2508 314.759 37.961C316.237 39.6712 317.014 42.0457 317.014 44.9667ZM279.354 32.8313C277.334 32.8313 275.493 33.2365 273.827 34.048C272.162 34.8589 270.85 35.9566 269.917 37.3642C268.988 38.7302 268.498 40.3211 268.504 41.9451C268.504 43.4243 268.857 44.7841 269.589 46.0012C270.295 47.17 271.254 48.1482 272.465 48.9591L268.857 53.5878C268.403 54.1604 268.353 54.9239 268.68 55.5443C269.033 56.1884 269.69 56.57 270.447 56.57H271.481C270.514 57.1874 269.732 57.9145 269.18 58.7713L269.109 58.8843C268.453 59.9099 268.125 60.984 268.125 62.0812C268.125 64.0964 269.05 65.7666 270.876 67.0233L270.976 67.0914C272.844 68.3559 275.468 69 278.773 69C281.069 69 283.264 68.6422 285.258 67.9502C287.218 67.2784 288.822 66.2908 290.022 65.0105L290.126 64.897C291.363 63.5604 291.994 61.938 291.994 60.0773C291.994 58.1208 291.237 56.7368 289.471 55.4012C287.957 54.2798 285.585 53.6836 282.633 53.6836H272.541C272.526 53.6823 272.512 53.6768 272.501 53.6678L272.49 53.6594L272.486 53.6495C272.48 53.6342 272.472 53.6051 272.49 53.5878L275.115 50.2479C275.736 50.5217 276.388 50.7297 277.057 50.8678C277.663 50.9872 278.344 51.0351 279.101 51.0351C281.22 51.0351 283.138 50.6294 284.803 49.8185C286.469 49.007 287.806 47.9098 288.765 46.5017C289.723 45.1182 290.203 43.5674 290.203 41.9214C290.203 40.1559 289.295 36.9348 286.822 35.2888C286.822 35.274 286.831 35.2686 286.838 35.2661L286.847 35.2646L292.272 35.8371V33.4754H283.592C282.23 33.0697 280.816 32.8313 279.354 32.8313ZM282.381 47.7667C281.422 48.2435 280.388 48.5061 279.354 48.5061C277.663 48.5061 276.174 47.9335 274.913 46.8121C273.651 45.6907 273.02 44.0447 273.02 41.9451C273.02 39.8454 273.651 38.1989 274.913 37.078C276.174 35.9566 277.663 35.384 279.354 35.384C280.369 35.384 281.338 35.6032 282.261 36.0622L282.381 36.1234C283.34 36.6007 284.122 37.3406 284.753 38.3188C285.358 39.2971 285.687 40.5137 285.687 41.9451C285.687 43.4006 285.384 44.6172 284.753 45.5713C284.148 46.5495 283.34 47.2894 282.381 47.7667ZM275.543 56.5463H282.381C284.273 56.5463 285.485 56.9041 286.292 57.6677C287.099 58.4312 287.503 59.4569 287.503 60.6498C287.503 62.3916 286.771 63.8234 285.308 64.8965C283.844 65.9705 281.877 66.5188 279.454 66.5188C277.334 66.5188 275.568 66.0657 274.281 65.2069C272.995 64.3481 272.339 63.0352 272.339 61.3655C272.339 60.3157 272.642 59.3374 273.247 58.4786C273.853 57.6198 274.584 56.9994 275.543 56.5463H275.543Z" fill="#353535"/>
<path d="M584.44 42.5603C588.299 42.5603 591.428 39.5952 591.428 35.9375C591.428 32.2798 588.299 29.3147 584.44 29.3147C580.581 29.3147 577.453 32.2798 577.453 35.9375C577.453 39.5952 580.581 42.5603 584.44 42.5603Z" fill="#353535"/>
<path d="M584.44 24.0553C593.47 24.0553 602.046 25.2612 608.567 27.3884C615.809 29.7506 620.229 33.2444 620.229 35.9375C620.229 38.8037 615.457 42.5263 607.709 44.9596C601.544 46.8951 593.29 47.9526 584.44 47.9526C575.143 47.9526 566.795 46.9168 560.701 44.9411C556.885 43.7043 553.733 42.0965 551.57 40.3465C549.63 38.7696 548.651 37.2052 548.651 35.9375C548.651 33.2352 552.898 29.7908 559.987 27.4471C566.511 25.2921 575.296 24.0553 584.44 24.0553ZM584.44 20.8831C574.941 20.8831 565.787 22.1755 558.884 24.4573C550.598 27.1936 545.307 31.4851 545.307 35.9375C545.307 40.532 550.987 45.1451 559.618 47.9402C566.107 50.0427 574.8 51.1218 584.44 51.1218C593.626 51.1218 602.222 50.021 608.763 47.968C617.734 45.1482 623.573 40.5939 623.573 35.9375C623.573 31.4697 618.109 27.1503 609.657 24.3893C602.764 22.1415 593.822 20.8831 584.44 20.8831ZM573.518 30.0351C578.03 22.6176 583.416 16.1803 588.622 11.8857C594.396 7.12414 599.798 5.23808 602.258 6.58615C604.878 8.01769 605.899 13.7933 604.251 21.3716C602.94 27.4008 599.782 34.7038 595.362 41.9728C590.717 49.6067 585.601 55.942 580.747 59.9584C577.714 62.4752 574.67 64.2592 571.988 65.1589C569.581 65.9628 567.66 65.9876 566.501 65.3537C564.032 64.0057 563.004 58.7958 564.404 51.8082C565.692 45.3739 568.951 37.5391 573.518 30.032M570.622 28.4489C565.875 36.2467 562.482 44.4093 561.119 51.2145C559.485 59.3864 560.76 65.8763 564.828 68.0962C569.033 70.3966 576.082 68.0344 582.949 62.3453C588.113 58.0692 593.444 51.468 598.259 43.5559C602.845 36.0117 606.137 28.4056 607.523 22.0085C609.432 13.2368 608.185 6.16565 603.928 3.84055C599.844 1.6082 593.17 3.9333 586.424 9.49871C580.93 14.0314 575.309 20.747 570.622 28.4489ZM573.528 41.9852C569.004 34.5832 565.81 26.9432 564.485 20.5306C563.014 13.4038 563.99 8.03006 566.449 6.682C569.066 5.24427 574.856 7.29419 580.959 12.4298C585.82 16.5173 590.916 22.7567 595.349 30.0196C600.01 37.6473 603.243 45.0091 604.496 50.9981C605.279 54.7485 605.39 58.1404 604.871 60.7901C604.405 63.1709 603.468 64.7601 602.31 65.397C599.844 66.7482 594.569 64.9889 588.88 60.348C583.644 56.0812 578.108 49.4923 573.528 41.9914M570.635 43.5806C575.394 51.3722 581.158 58.2362 586.701 62.7504C593.352 68.1766 599.919 70.3657 603.984 68.1364C608.182 65.833 609.546 58.8639 607.774 50.3828C606.443 44.0104 603.074 36.3363 598.242 28.4304C593.643 20.8954 588.329 14.3932 583.178 10.0583C576.112 4.11263 569.026 1.60202 564.772 3.9364C560.695 6.17493 559.488 12.8194 561.204 21.1366C562.603 27.9171 565.934 35.8818 570.635 43.5775" fill="#353535"/>
<path d="M699.996 69C699.061 69 698.128 68.769 697.31 68.3208L688.757 63.5441C687.481 62.8703 688.104 62.6311 688.524 62.4908C690.228 61.9326 690.572 61.8033 692.392 60.8298C692.582 60.7281 692.832 60.7666 693.027 60.8766L699.599 64.5588C699.721 64.62 699.857 64.6519 699.996 64.6519C700.134 64.6519 700.27 64.62 700.392 64.5588L726.013 50.5999C726.132 50.532 726.231 50.436 726.299 50.3213C726.368 50.2066 726.403 50.0771 726.403 49.9454V22.0333C726.403 21.8993 726.366 21.7676 726.296 21.651C726.226 21.5345 726.126 21.4369 726.004 21.3678L700.395 7.41991C700.274 7.35633 700.138 7.32295 700 7.32295C699.862 7.32295 699.726 7.35633 699.605 7.41991L674.002 21.3705C673.88 21.4389 673.778 21.5358 673.708 21.6519C673.637 21.7679 673.599 21.8993 673.597 22.0333V49.9454C673.597 50.0774 673.635 50.2069 673.706 50.3205C673.778 50.434 673.88 50.5277 674.002 50.5917L681.02 54.4197C684.827 56.2181 687.16 54.1007 687.16 51.9722V24.4147C687.16 24.0242 687.493 23.719 687.906 23.719H691.154C691.559 23.719 691.897 24.027 691.897 24.4147V51.9722C691.897 56.7709 689.13 59.5208 684.311 59.5208C682.832 59.5208 681.663 59.5209 678.409 58.0056L671.686 54.3564C670.869 53.9071 670.191 53.2634 669.719 52.4894C669.248 51.7154 669 50.8382 669 49.9454V22.0333C669 20.221 670.028 18.527 671.686 17.6251L697.307 3.6497C698.132 3.22342 699.058 3 699.999 3C700.939 3 701.865 3.22342 702.69 3.6497L728.308 17.6251C729.969 18.5298 731 20.221 731 22.0333V49.9454C730.998 50.8385 730.749 51.7156 730.277 52.4895C729.804 53.2633 729.126 53.907 728.308 54.3564L702.69 68.3208C701.875 68.769 700.945 69 699.996 69ZM720.682 41.481C720.682 36.2561 716.941 34.8646 709.067 33.8829C701.111 32.8901 700.302 32.3759 700.302 30.6187C700.302 29.1667 700.986 27.228 706.879 27.228C712.143 27.228 714.083 28.2977 714.882 31.6472C714.918 31.8019 715.009 31.9404 715.14 32.0398C715.271 32.1393 715.433 32.1938 715.601 32.1944H718.925C719.027 32.1934 719.127 32.1732 719.22 32.135C719.313 32.0967 719.397 32.0412 719.467 31.9716C719.537 31.8995 719.591 31.8143 719.625 31.7215C719.658 31.6287 719.671 31.5304 719.662 31.4327C719.147 25.6632 715.086 22.9737 706.879 22.9737C699.573 22.9737 695.215 25.8832 695.215 30.7644C695.215 36.0581 699.55 37.5211 706.562 38.1756C714.952 38.9511 715.601 40.1088 715.601 41.6653C715.601 44.3685 713.303 45.5208 707.905 45.5208C701.126 45.5208 699.634 43.9148 699.133 40.7303C699.106 40.5649 699.016 40.4144 698.881 40.3059C698.746 40.1975 698.574 40.1383 698.396 40.1391H695.084C694.987 40.1383 694.891 40.1558 694.801 40.1905C694.711 40.2252 694.629 40.2763 694.56 40.341C694.491 40.4058 694.437 40.4827 694.4 40.5675C694.363 40.6522 694.344 40.7431 694.344 40.8348C694.344 44.9103 696.692 49.7667 707.905 49.7667C716.027 49.7695 720.682 46.7527 720.682 41.481Z" fill="#353535"/>
<path d="M483.618 3H446.625C437.611 3 430.304 9.9256 430.304 18.4688V53.5312C430.304 62.0744 437.611 69 446.625 69H483.618C492.632 69 499.939 62.0744 499.939 53.5312V18.4688C499.939 9.9256 492.632 3 483.618 3Z" fill="#353535"/>
<path d="M492.323 50.1636C491.531 50.4478 490.656 50.4472 489.865 50.162C489.074 49.8767 488.42 49.3265 488.027 48.6154C485.562 45.1176 482.84 41.7777 480.223 38.3661L479.089 36.9326C475.973 40.889 472.857 44.6876 470.014 48.6298C469.644 49.3095 469.025 49.8384 468.274 50.1179C467.523 50.3975 466.69 50.4087 465.931 50.1494L477.622 35.2842L466.747 21.8521C467.53 21.5842 468.386 21.5805 469.172 21.8417C469.957 22.1028 470.623 22.6128 471.058 23.2856C473.583 26.7836 476.382 30.1235 479.164 33.6643C481.963 30.1521 484.73 26.7977 487.316 23.3286C487.689 22.66 488.308 22.1445 489.055 21.8802C489.802 21.6158 490.626 21.6212 491.37 21.8952L487.15 27.1992C485.26 29.5643 483.399 31.9439 481.433 34.2519C481.275 34.3863 481.148 34.5509 481.061 34.7349C480.974 34.9189 480.929 35.1183 480.929 35.3199C480.929 35.5215 480.974 35.7208 481.061 35.9048C481.148 36.0889 481.275 36.2535 481.433 36.3879C485.048 40.9321 488.632 45.4904 492.323 50.1636ZM437.92 35.0978C438.238 33.6643 438.435 32.1017 438.873 30.6397C441.49 21.8238 452.152 18.1538 459.488 23.6156C463.783 26.8124 464.857 31.3422 464.645 36.4453H440.446C440.053 45.5624 446.995 51.0669 455.873 48.2573C457.313 47.769 458.602 46.9485 459.624 45.8698C460.646 44.7911 461.368 43.4883 461.726 42.0788C462.195 40.6454 462.951 40.4017 464.388 40.8173C464.151 42.5625 463.5 44.2341 462.484 45.7064C461.468 47.1788 460.112 48.4136 458.52 49.3179C455.889 50.6817 452.87 51.222 449.896 50.8616C446.921 50.5011 444.143 49.2584 441.959 47.3111C439.798 45.0081 438.491 42.0982 438.238 39.0255C438.238 38.5383 438.041 38.0507 437.936 37.5921C437.926 36.7607 437.921 35.9292 437.92 35.0978ZM440.476 34.4813H462.361C462.225 27.8731 457.824 23.1855 451.956 23.1427C445.422 23.0566 440.749 27.6436 440.461 34.4527L440.476 34.4813Z" fill="white"/>
</svg>
