<svg width="273" height="26" viewBox="0 0 273 26" fill="none" xmlns="http://www.w3.org/2000/svg">
<path d="M0.185939 25V24.2689L2.68778 24.1065V2.71084L0.185939 2.54838V1.81732H7.13912L13.9136 19.1028H13.9461L20.3144 1.81732H26.9752V2.54838L24.4733 2.71084V24.1065L26.9752 24.2689V25H17.8126V24.2689L20.3144 24.1065L20.3469 4.23794H20.3144L12.5977 25.3249H11.9966L3.41884 3.47439H3.38635L3.63004 24.1065L6.08314 24.2689V25H0.185939ZM32.4305 9.98893V9.32286L35.8258 8.96545L38.1165 8.36436L38.4089 8.83549V24.1715L40.0822 24.3339V25H32.7554V24.3339L34.4287 24.1715V9.98893H32.4305ZM34.2013 2.59712C34.2013 2.29387 34.2554 2.01227 34.3637 1.75234C34.4829 1.49241 34.6399 1.26497 34.8349 1.07002C35.0298 0.875071 35.2572 0.723444 35.5172 0.615139C35.7771 0.506834 36.0533 0.452682 36.3457 0.452682C36.6381 0.452682 36.9143 0.51225 37.1742 0.631385C37.4342 0.73969 37.6616 0.891317 37.8566 1.08627C38.0623 1.28121 38.2194 1.50866 38.3277 1.76859C38.4468 2.02852 38.5064 2.3047 38.5064 2.59712C38.5064 2.88954 38.4468 3.16572 38.3277 3.42565C38.2194 3.68558 38.0678 3.91844 37.8728 4.12422C37.6779 4.31917 37.4504 4.47621 37.1905 4.59535C36.9306 4.70365 36.649 4.7578 36.3457 4.7578C36.0425 4.7578 35.7609 4.70365 35.5009 4.59535C35.241 4.47621 35.0136 4.31917 34.8186 4.12422C34.6237 3.92927 34.472 3.70183 34.3637 3.4419C34.2554 3.18197 34.2013 2.90037 34.2013 2.59712ZM45.2614 9.32286L48.6567 8.96545L50.9474 8.36436L51.2398 8.83549L51.1748 11.0287H51.2398C52.5286 9.14415 54.1965 8.2019 56.2435 8.2019C56.6334 8.2019 57.007 8.23439 57.3645 8.29938C57.7219 8.36436 58.1172 8.51057 58.5504 8.73801C58.9836 8.96545 59.3573 9.26329 59.6714 9.63153C59.9854 9.99976 60.2508 10.525 60.4674 11.2074C60.684 11.8897 60.7923 12.6857 60.7923 13.5955V24.1715L62.4494 24.3339V25H55.1388V24.3339L56.7959 24.1715V13.1244C56.7959 10.8175 56.054 9.66402 54.5702 9.66402C53.5954 9.66402 52.794 10.1081 52.1658 10.9962C51.5485 11.8843 51.2398 13.0485 51.2398 14.489V24.1715L52.9131 24.3339V25H45.5863V24.3339L47.2596 24.1715V9.95644L45.2939 9.98893L45.2614 9.32286ZM67.2549 3.10074V2.43466L70.6502 2.07726L72.9409 1.47616L73.1683 1.94729V11.0287H73.2333C74.5221 9.14415 76.19 8.2019 78.237 8.2019C78.6269 8.2019 79.0005 8.23439 79.3579 8.29938C79.7154 8.36436 80.1107 8.51057 80.5439 8.73801C80.9771 8.96545 81.3508 9.26329 81.6648 9.63153C81.9789 9.99976 82.2443 10.525 82.4609 11.2074C82.6775 11.8897 82.7858 12.6857 82.7858 13.5955V24.1715L84.4429 24.3339V25H77.1323V24.3339L78.7893 24.1715V13.1244C78.7893 10.8175 78.0475 9.66402 76.5637 9.66402C75.5889 9.66402 74.7875 10.1081 74.1593 10.9962C73.542 11.8843 73.2333 13.0485 73.2333 14.489V24.1715L74.9066 24.3339V25H67.5798V24.3339L69.2531 24.1715V3.10074H67.2549ZM89.7682 21.4747C89.7682 20.944 89.8494 20.4349 90.0119 19.9476C90.1852 19.4494 90.4614 18.9728 90.8404 18.5179C91.2195 18.0631 91.6852 17.6678 92.2376 17.332C92.7899 16.9963 93.4722 16.7309 94.2845 16.536C95.1077 16.3302 96.0174 16.2273 97.0138 16.2273C97.5445 16.2273 98.0481 16.249 98.5247 16.2923V14.0504C98.5247 13.3356 98.5084 12.7561 98.4759 12.3121C98.4543 11.868 98.3893 11.4131 98.281 10.9474C98.1727 10.4709 98.0156 10.1081 97.8099 9.85897C97.6149 9.59904 97.3333 9.38784 96.9651 9.22538C96.6077 9.0521 96.169 8.96545 95.6492 8.96545C94.0679 8.96545 92.9145 9.5882 92.1888 10.8337V10.8987C92.373 10.8662 92.5408 10.85 92.6925 10.85C93.2556 10.85 93.6997 11.0232 94.0246 11.3698C94.3495 11.7164 94.512 12.2146 94.512 12.8644C94.512 13.4276 94.317 13.9042 93.9271 14.2941C93.5372 14.6731 93.0499 14.8627 92.465 14.8627C91.826 14.8627 91.3224 14.646 90.9542 14.2128C90.5859 13.7796 90.4018 13.2706 90.4018 12.6857C90.4018 11.4077 90.9867 10.3409 92.1563 9.48532C93.3369 8.62971 94.6907 8.2019 96.2178 8.2019C97.3008 8.2019 98.2214 8.31562 98.9796 8.54306C99.7485 8.7705 100.36 9.07376 100.815 9.45282C101.27 9.82106 101.622 10.3301 101.871 10.9799C102.131 11.6189 102.299 12.2742 102.375 12.9457C102.462 13.6171 102.505 14.4403 102.505 15.415V24.1715L104.178 24.3339V25H99.012L98.5572 22.4332H98.5247C97.994 23.4621 97.3496 24.231 96.5914 24.7401C95.8441 25.2383 94.9344 25.4874 93.8621 25.4874C92.5408 25.4874 91.5282 25.0921 90.8242 24.3014C90.1202 23.5108 89.7682 22.5686 89.7682 21.4747ZM93.6997 21.1335C93.6997 22 93.8621 22.7039 94.1871 23.2455C94.512 23.7762 94.9885 24.0415 95.6167 24.0415C96.3532 24.0415 97.0192 23.5812 97.6149 22.6606C98.2214 21.74 98.5247 20.6136 98.5247 19.2815V17.0396C98.0915 16.9854 97.7395 16.9584 97.4687 16.9584C96.9055 16.9584 96.4019 17.0342 95.9578 17.1858C95.5246 17.3374 95.1781 17.5432 94.9181 17.8031C94.6582 18.0631 94.4416 18.3392 94.2683 18.6317C94.095 18.9133 93.9705 19.2273 93.8946 19.5739C93.8188 19.9205 93.7647 20.2075 93.7322 20.4349C93.7105 20.6624 93.6997 20.8952 93.6997 21.1335ZM109.195 24.5289L118 9.53405L114.052 9.38784H113.89C113.424 9.38784 113.002 9.47448 112.623 9.64777C112.211 9.85355 111.881 10.1135 111.632 10.4276C111.393 10.7417 111.199 11.1207 111.047 11.5648C110.895 12.0088 110.792 12.4366 110.738 12.8482C110.684 13.2489 110.657 13.6713 110.657 14.1154H109.991V8.68927H122.451L122.76 9.1604L113.614 24.1552L118.244 24.3014H118.406C118.904 24.2906 119.348 24.1985 119.738 24.0253C120.172 23.8303 120.502 23.5758 120.729 23.2617C120.968 22.9476 121.163 22.5686 121.314 22.1245C121.466 21.6696 121.563 21.2472 121.607 20.8573C121.65 20.4566 121.672 20.0288 121.672 19.5739H122.338V25H109.487L109.195 24.5289ZM139.275 25V24.2689L141.777 24.1065V2.71084L139.275 2.54838V1.81732H147.934C149.137 1.81732 150.22 1.92021 151.184 2.12599C152.158 2.33177 153.025 2.65669 153.783 3.10074C154.552 3.54479 155.142 4.14588 155.554 4.90402C155.976 5.65132 156.187 6.53942 156.187 7.56832C156.187 9.42033 155.565 10.8662 154.319 11.9059C153.074 12.9348 151.389 13.6009 149.267 13.9042V13.9366C150.176 13.9475 150.962 14.0937 151.622 14.3753C152.294 14.6569 152.824 15.0197 153.214 15.4637C153.615 15.897 153.994 16.4602 154.352 17.1533C154.59 17.6298 154.926 18.3609 155.359 19.3465C155.803 20.3212 156.241 21.1877 156.675 21.9458C157.021 22.5631 157.384 23.0397 157.763 23.3754C158.142 23.7112 158.462 23.917 158.722 23.9928C158.982 24.0686 159.279 24.1065 159.615 24.1065V25H156.918C156.095 25 155.445 24.9513 154.969 24.8538C154.492 24.7455 154.016 24.4964 153.539 24.1065C153.074 23.7166 152.657 23.1805 152.288 22.4982C151.92 21.805 151.292 20.3645 150.404 18.1768C150.274 17.8519 150.084 17.4349 149.835 16.9259C149.597 16.406 149.386 16.0161 149.202 15.7562C149.028 15.4854 148.817 15.2038 148.568 14.9114C148.33 14.619 148.081 14.4132 147.821 14.2941C147.572 14.1641 147.306 14.0991 147.025 14.0991C146.548 14.0991 146.185 14.1045 145.936 14.1154V24.1065L148.438 24.2689V25H139.275ZM145.936 13.1893C146.055 13.2002 146.277 13.2056 146.602 13.2056C148.53 13.2056 149.884 12.7399 150.664 11.8085C151.454 10.8662 151.85 9.46365 151.85 7.60081C151.85 6.66939 151.736 5.87876 151.509 5.22893C151.292 4.5791 150.978 4.07548 150.566 3.71808C150.155 3.36067 149.7 3.10615 149.202 2.95453C148.703 2.8029 148.135 2.72709 147.496 2.72709C147.073 2.72709 146.554 2.77041 145.936 2.85705V13.1893ZM163.543 21.4747C163.543 20.944 163.625 20.4349 163.787 19.9476C163.96 19.4494 164.237 18.9728 164.616 18.5179C164.995 18.0631 165.46 17.6678 166.013 17.332C166.565 16.9963 167.247 16.7309 168.06 16.536C168.883 16.3302 169.793 16.2273 170.789 16.2273C171.32 16.2273 171.823 16.249 172.3 16.2923V14.0504C172.3 13.3356 172.284 12.7561 172.251 12.3121C172.229 11.868 172.164 11.4131 172.056 10.9474C171.948 10.4709 171.791 10.1081 171.585 9.85897C171.39 9.59904 171.108 9.38784 170.74 9.22538C170.383 9.0521 169.944 8.96545 169.424 8.96545C167.843 8.96545 166.69 9.5882 165.964 10.8337V10.8987C166.148 10.8662 166.316 10.85 166.468 10.85C167.031 10.85 167.475 11.0232 167.8 11.3698C168.125 11.7164 168.287 12.2146 168.287 12.8644C168.287 13.4276 168.092 13.9042 167.702 14.2941C167.312 14.6731 166.825 14.8627 166.24 14.8627C165.601 14.8627 165.098 14.646 164.729 14.2128C164.361 13.7796 164.177 13.2706 164.177 12.6857C164.177 11.4077 164.762 10.3409 165.932 9.48532C167.112 8.62971 168.466 8.2019 169.993 8.2019C171.076 8.2019 171.997 8.31562 172.755 8.54306C173.524 8.7705 174.136 9.07376 174.59 9.45282C175.045 9.82106 175.397 10.3301 175.646 10.9799C175.906 11.6189 176.074 12.2742 176.15 12.9457C176.237 13.6171 176.28 14.4403 176.28 15.415V24.1715L177.953 24.3339V25H172.787L172.332 22.4332H172.3C171.769 23.4621 171.125 24.231 170.367 24.7401C169.619 25.2383 168.71 25.4874 167.637 25.4874C166.316 25.4874 165.303 25.0921 164.599 24.3014C163.895 23.5108 163.543 22.5686 163.543 21.4747ZM167.475 21.1335C167.475 22 167.637 22.7039 167.962 23.2455C168.287 23.7762 168.764 24.0415 169.392 24.0415C170.128 24.0415 170.794 23.5812 171.39 22.6606C171.997 21.74 172.3 20.6136 172.3 19.2815V17.0396C171.867 16.9854 171.515 16.9584 171.244 16.9584C170.681 16.9584 170.177 17.0342 169.733 17.1858C169.3 17.3374 168.953 17.5432 168.693 17.8031C168.433 18.0631 168.217 18.3392 168.043 18.6317C167.87 18.9133 167.746 19.2273 167.67 19.5739C167.594 19.9205 167.54 20.2075 167.507 20.4349C167.486 20.6624 167.475 20.8952 167.475 21.1335ZM182.71 3.10074V2.43466L186.105 2.07726L188.396 1.47616L188.624 1.94729V11.0287H188.689C189.977 9.14415 191.645 8.2019 193.692 8.2019C194.082 8.2019 194.456 8.23439 194.813 8.29938C195.171 8.36436 195.566 8.51057 195.999 8.73801C196.432 8.96545 196.806 9.26329 197.12 9.63153C197.434 9.99976 197.7 10.525 197.916 11.2074C198.133 11.8897 198.241 12.6857 198.241 13.5955V24.1715L199.898 24.3339V25H192.588V24.3339L194.245 24.1715V13.1244C194.245 10.8175 193.503 9.66402 192.019 9.66402C191.044 9.66402 190.243 10.1081 189.615 10.9962C188.997 11.8843 188.689 13.0485 188.689 14.489V24.1715L190.362 24.3339V25H183.035V24.3339L184.708 24.1715V3.10074H182.71ZM204.98 9.98893V9.32286L208.375 8.96545L210.666 8.36436L210.893 8.83549V11.0287H210.958C212.247 9.14415 213.801 8.2019 215.621 8.2019C216 8.2019 216.368 8.24522 216.725 8.33187C217.083 8.40768 217.457 8.54848 217.846 8.75426C218.247 8.94921 218.61 9.26329 218.935 9.69651C219.26 10.1189 219.514 10.6333 219.698 11.2399H219.731C221.182 9.21455 222.872 8.2019 224.8 8.2019C225.179 8.2019 225.547 8.23981 225.904 8.31562C226.262 8.3806 226.646 8.53223 227.058 8.7705C227.48 9.00877 227.843 9.31744 228.146 9.69651C228.449 10.0756 228.704 10.6117 228.91 11.3048C229.116 11.9872 229.218 12.7832 229.218 13.693V24.1715L230.892 24.3339V25H223.565V24.3339L225.222 24.1715V13.1244C225.222 12.4854 225.162 11.9384 225.043 11.4835C224.935 11.0178 224.805 10.6713 224.653 10.4438C224.513 10.2164 224.334 10.0431 224.117 9.92395C223.901 9.79398 223.727 9.71817 223.597 9.69651C223.467 9.67485 223.321 9.66402 223.159 9.66402C222.433 9.66402 221.724 10.0647 221.031 10.8662C220.348 11.6677 220.007 12.767 220.007 14.1641V24.1715L221.68 24.3339V25H214.354V24.3339L216.011 24.1715V13.1244C216.011 12.4854 215.956 11.9384 215.848 11.4835C215.74 11.0178 215.61 10.6713 215.458 10.4438C215.317 10.2164 215.139 10.0431 214.922 9.92395C214.716 9.79398 214.549 9.71817 214.419 9.69651C214.289 9.67485 214.142 9.66402 213.98 9.66402C213.287 9.66402 212.61 10.1297 211.949 11.0612C211.289 11.9926 210.958 13.1352 210.958 14.489V24.1715L212.632 24.3339V25H205.305V24.3339L206.978 24.1715V9.98893H204.98ZM236.168 21.4747C236.168 20.944 236.25 20.4349 236.412 19.9476C236.585 19.4494 236.862 18.9728 237.241 18.5179C237.62 18.0631 238.085 17.6678 238.638 17.332C239.19 16.9963 239.872 16.7309 240.685 16.536C241.508 16.3302 242.418 16.2273 243.414 16.2273C243.945 16.2273 244.448 16.249 244.925 16.2923V14.0504C244.925 13.3356 244.909 12.7561 244.876 12.3121C244.854 11.868 244.789 11.4131 244.681 10.9474C244.573 10.4709 244.416 10.1081 244.21 9.85897C244.015 9.59904 243.733 9.38784 243.365 9.22538C243.008 9.0521 242.569 8.96545 242.049 8.96545C240.468 8.96545 239.315 9.5882 238.589 10.8337V10.8987C238.773 10.8662 238.941 10.85 239.093 10.85C239.656 10.85 240.1 11.0232 240.425 11.3698C240.75 11.7164 240.912 12.2146 240.912 12.8644C240.912 13.4276 240.717 13.9042 240.327 14.2941C239.937 14.6731 239.45 14.8627 238.865 14.8627C238.226 14.8627 237.723 14.646 237.354 14.2128C236.986 13.7796 236.802 13.2706 236.802 12.6857C236.802 11.4077 237.387 10.3409 238.556 9.48532C239.737 8.62971 241.091 8.2019 242.618 8.2019C243.701 8.2019 244.622 8.31562 245.38 8.54306C246.149 8.7705 246.761 9.07376 247.215 9.45282C247.67 9.82106 248.022 10.3301 248.271 10.9799C248.531 11.6189 248.699 12.2742 248.775 12.9457C248.862 13.6171 248.905 14.4403 248.905 15.415V24.1715L250.578 24.3339V25H245.412L244.957 22.4332H244.925C244.394 23.4621 243.75 24.231 242.992 24.7401C242.244 25.2383 241.334 25.4874 240.262 25.4874C238.941 25.4874 237.928 25.0921 237.224 24.3014C236.52 23.5108 236.168 22.5686 236.168 21.4747ZM240.1 21.1335C240.1 22 240.262 22.7039 240.587 23.2455C240.912 23.7762 241.389 24.0415 242.017 24.0415C242.753 24.0415 243.419 23.5812 244.015 22.6606C244.622 21.74 244.925 20.6136 244.925 19.2815V17.0396C244.492 16.9854 244.14 16.9584 243.869 16.9584C243.306 16.9584 242.802 17.0342 242.358 17.1858C241.925 17.3374 241.578 17.5432 241.318 17.8031C241.058 18.0631 240.842 18.3392 240.668 18.6317C240.495 18.9133 240.371 19.2273 240.295 19.5739C240.219 19.9205 240.165 20.2075 240.132 20.4349C240.111 20.6624 240.1 20.8952 240.1 21.1335ZM255.579 9.32286L258.974 8.96545L261.265 8.36436L261.557 8.83549L261.492 11.0287H261.557C262.846 9.14415 264.514 8.2019 266.561 8.2019C266.951 8.2019 267.324 8.23439 267.682 8.29938C268.039 8.36436 268.435 8.51057 268.868 8.73801C269.301 8.96545 269.675 9.26329 269.989 9.63153C270.303 9.99976 270.568 10.525 270.785 11.2074C271.001 11.8897 271.11 12.6857 271.11 13.5955V24.1715L272.767 24.3339V25H265.456V24.3339L267.113 24.1715V13.1244C267.113 10.8175 266.371 9.66402 264.888 9.66402C263.913 9.66402 263.111 10.1081 262.483 10.9962C261.866 11.8843 261.557 13.0485 261.557 14.489V24.1715L263.231 24.3339V25H255.904V24.3339L257.577 24.1715V9.95644L255.611 9.98893L255.579 9.32286Z" fill="white"/>
</svg>
